# xmcd
#
# Track frame offsets:
#	150
#	20473
#	36260
#	44628
#	59034
#	69013
#	85879
#	100275
#	113374
#
# Disc length: 1820 seconds
#
# Revision: 0
# Processed by: cddbd v1.4PL0 Copyright (c) Steve Scherf et al.
# Submitted via: dBpowerAMP V4.0
#
DISCID=71071a09
DTITLE=DJ Squashy Nice - Desert Isalnd Lounge
DYEAR=1900
DGENRE=Hip Hop
TTITLE0=Relaxation
TTITLE1=Summer Solstice
TTITLE2=Never Satisfied
TTITLE3=Afternoon Thunderstorm
TTITLE4=Beats Like This
TTITLE5=Come Correct
TTITLE6=Producer is King
TTITLE7=Spring Break
TTITLE8=Nasty's Round
EXTD=
EXTT0=
EXTT1=
EXTT2=
EXTT3=
EXTT4=
EXTT5=
EXTT6=
EXTT7=
EXTT8=
PLAYORDER=
